<svg id="visual" viewBox="0 0 960 540" width="960" height="540" xmlns="http://www.w3.org/2000/svg" xmlns:xlink="http://www.w3.org/1999/xlink" version="1.1"><rect x="0" y="0" width="960" height="540" fill="#ffffff"></rect><path d="M0 358L22.8 364.3C45.7 370.7 91.3 383.3 137 386C182.7 388.7 228.3 381.3 274 377C319.7 372.7 365.3 371.3 411.2 373.2C457 375 503 380 548.8 382.3C594.7 384.7 640.3 384.3 686 387.2C731.7 390 777.3 396 823 394.3C868.7 392.7 914.3 383.3 937.2 378.7L960 374L960 541L937.2 541C914.3 541 868.7 541 823 541C777.3 541 731.7 541 686 541C640.3 541 594.7 541 548.8 541C503 541 457 541 411.2 541C365.3 541 319.7 541 274 541C228.3 541 182.7 541 137 541C91.3 541 45.7 541 22.8 541L0 541Z" fill="#e8e8e8"></path><path d="M0 380L22.8 380.2C45.7 380.3 91.3 380.7 137 388.2C182.7 395.7 228.3 410.3 274 407C319.7 403.7 365.3 382.3 411.2 381.7C457 381 503 401 548.8 401.3C594.7 401.7 640.3 382.3 686 375.2C731.7 368 777.3 373 823 376C868.7 379 914.3 380 937.2 380.5L960 381L960 541L937.2 541C914.3 541 868.7 541 823 541C777.3 541 731.7 541 686 541C640.3 541 594.7 541 548.8 541C503 541 457 541 411.2 541C365.3 541 319.7 541 274 541C228.3 541 182.7 541 137 541C91.3 541 45.7 541 22.8 541L0 541Z" fill="#bfbfbf"></path><path d="M0 430L22.8 434.3C45.7 438.7 91.3 447.3 137 449.5C182.7 451.7 228.3 447.3 274 445.8C319.7 444.3 365.3 445.7 411.2 440.3C457 435 503 423 548.8 419.8C594.7 416.7 640.3 422.3 686 425.3C731.7 428.3 777.3 428.7 823 429C868.7 429.3 914.3 429.7 937.2 429.8L960 430L960 541L937.2 541C914.3 541 868.7 541 823 541C777.3 541 731.7 541 686 541C640.3 541 594.7 541 548.8 541C503 541 457 541 411.2 541C365.3 541 319.7 541 274 541C228.3 541 182.7 541 137 541C91.3 541 45.7 541 22.8 541L0 541Z" fill="#989898"></path><path d="M0 477L22.8 469.7C45.7 462.3 91.3 447.7 137 441C182.7 434.3 228.3 435.7 274 440.7C319.7 445.7 365.3 454.3 411.2 457C457 459.7 503 456.3 548.8 457.3C594.7 458.3 640.3 463.7 686 461.5C731.7 459.3 777.3 449.7 823 445.7C868.7 441.7 914.3 443.3 937.2 444.2L960 445L960 541L937.2 541C914.3 541 868.7 541 823 541C777.3 541 731.7 541 686 541C640.3 541 594.7 541 548.8 541C503 541 457 541 411.2 541C365.3 541 319.7 541 274 541C228.3 541 182.7 541 137 541C91.3 541 45.7 541 22.8 541L0 541Z" fill="#727272"></path><path d="M0 495L22.8 496.8C45.7 498.7 91.3 502.3 137 502.3C182.7 502.3 228.3 498.7 274 498C319.7 497.3 365.3 499.7 411.2 499.2C457 498.7 503 495.3 548.8 495.8C594.7 496.3 640.3 500.7 686 497.5C731.7 494.3 777.3 483.7 823 483.5C868.7 483.3 914.3 493.7 937.2 498.8L960 504L960 541L937.2 541C914.3 541 868.7 541 823 541C777.3 541 731.7 541 686 541C640.3 541 594.7 541 548.8 541C503 541 457 541 411.2 541C365.3 541 319.7 541 274 541C228.3 541 182.7 541 137 541C91.3 541 45.7 541 22.8 541L0 541Z" fill="#4f4f4f"></path></svg>